<mxfile host="app.diagrams.net" modified="2021-10-06T13:24:00.144Z" agent="5.0 (Windows)" etag="u3n1K89LoUwVfT2b4x0I" version="15.4.3" type="github">
  <diagram id="hhX4gU_nDsG2BnWn9X6j" name="Page-1">
    <mxGraphModel dx="903" dy="327" grid="1" gridSize="10" guides="1" tooltips="1" connect="1" arrows="1" fold="1" page="1" pageScale="1" pageWidth="850" pageHeight="1100" math="0" shadow="0">
      <root>
        <mxCell id="0" />
        <mxCell id="1" parent="0" />
        <mxCell id="tlPMlYbICYiAIWxBPh2h-12" value="Ordre vare" style="shape=umlLifeline;perimeter=lifelinePerimeter;whiteSpace=wrap;html=1;container=1;collapsible=0;recursiveResize=0;outlineConnect=0;" vertex="1" parent="1">
          <mxGeometry x="550" y="10" width="110" height="310" as="geometry" />
        </mxCell>
        <mxCell id="tlPMlYbICYiAIWxBPh2h-57" value="" style="html=1;points=[];perimeter=orthogonalPerimeter;" vertex="1" parent="tlPMlYbICYiAIWxBPh2h-12">
          <mxGeometry x="50" y="40" width="10" height="270" as="geometry" />
        </mxCell>
        <mxCell id="tlPMlYbICYiAIWxBPh2h-14" value="Order" style="shape=umlLifeline;perimeter=lifelinePerimeter;whiteSpace=wrap;html=1;container=1;collapsible=0;recursiveResize=0;outlineConnect=0;" vertex="1" parent="1">
          <mxGeometry x="430" y="10" width="100" height="300" as="geometry" />
        </mxCell>
        <mxCell id="tlPMlYbICYiAIWxBPh2h-52" value="&lt;div&gt;Ordre har ikke fullført&lt;/div&gt;&lt;div&gt;&lt;br&gt;&lt;/div&gt;" style="text;html=1;strokeColor=none;fillColor=none;align=center;verticalAlign=middle;whiteSpace=wrap;rounded=0;" vertex="1" parent="tlPMlYbICYiAIWxBPh2h-14">
          <mxGeometry x="-20" y="220" width="60" height="30" as="geometry" />
        </mxCell>
        <mxCell id="tlPMlYbICYiAIWxBPh2h-55" value="" style="html=1;points=[];perimeter=orthogonalPerimeter;" vertex="1" parent="tlPMlYbICYiAIWxBPh2h-14">
          <mxGeometry x="40" y="40" width="10" height="210" as="geometry" />
        </mxCell>
        <mxCell id="tlPMlYbICYiAIWxBPh2h-15" value="Nettsider" style="shape=umlLifeline;perimeter=lifelinePerimeter;whiteSpace=wrap;html=1;container=1;collapsible=0;recursiveResize=0;outlineConnect=0;" vertex="1" parent="1">
          <mxGeometry x="310" y="10" width="100" height="300" as="geometry" />
        </mxCell>
        <mxCell id="tlPMlYbICYiAIWxBPh2h-38" value="" style="endArrow=open;endFill=1;endSize=12;html=1;rounded=0;edgeStyle=orthogonalEdgeStyle;" edge="1" parent="tlPMlYbICYiAIWxBPh2h-15">
          <mxGeometry width="160" relative="1" as="geometry">
            <mxPoint x="-70" y="74.58" as="sourcePoint" />
            <mxPoint x="50" y="74.58" as="targetPoint" />
            <Array as="points">
              <mxPoint x="-10" y="74.58" />
              <mxPoint x="-10" y="74.58" />
            </Array>
          </mxGeometry>
        </mxCell>
        <mxCell id="tlPMlYbICYiAIWxBPh2h-56" value="" style="html=1;points=[];perimeter=orthogonalPerimeter;" vertex="1" parent="tlPMlYbICYiAIWxBPh2h-15">
          <mxGeometry x="45" y="40" width="10" height="210" as="geometry" />
        </mxCell>
        <mxCell id="tlPMlYbICYiAIWxBPh2h-13" value="Betale" style="shape=umlLifeline;perimeter=lifelinePerimeter;whiteSpace=wrap;html=1;container=1;collapsible=0;recursiveResize=0;outlineConnect=0;" vertex="1" parent="1">
          <mxGeometry x="680" y="10" width="100" height="300" as="geometry" />
        </mxCell>
        <mxCell id="tlPMlYbICYiAIWxBPh2h-58" value="" style="html=1;points=[];perimeter=orthogonalPerimeter;" vertex="1" parent="tlPMlYbICYiAIWxBPh2h-13">
          <mxGeometry x="45" y="40" width="10" height="260" as="geometry" />
        </mxCell>
        <mxCell id="tlPMlYbICYiAIWxBPh2h-16" value="Bruker" style="shape=umlActor;verticalLabelPosition=bottom;verticalAlign=top;html=1;" vertex="1" parent="1">
          <mxGeometry x="210" y="10" width="30" height="60" as="geometry" />
        </mxCell>
        <mxCell id="tlPMlYbICYiAIWxBPh2h-27" value="" style="endArrow=open;endFill=1;endSize=12;html=1;rounded=0;edgeStyle=orthogonalEdgeStyle;" edge="1" parent="1" source="tlPMlYbICYiAIWxBPh2h-15" target="tlPMlYbICYiAIWxBPh2h-14">
          <mxGeometry width="160" relative="1" as="geometry">
            <mxPoint x="300" y="180" as="sourcePoint" />
            <mxPoint x="460" y="180" as="targetPoint" />
            <Array as="points">
              <mxPoint x="420" y="110" />
              <mxPoint x="420" y="110" />
            </Array>
          </mxGeometry>
        </mxCell>
        <mxCell id="tlPMlYbICYiAIWxBPh2h-28" value="VelgeVare" style="text;html=1;strokeColor=none;fillColor=none;align=center;verticalAlign=middle;whiteSpace=wrap;rounded=0;" vertex="1" parent="1">
          <mxGeometry x="390" y="70" width="60" height="30" as="geometry" />
        </mxCell>
        <mxCell id="tlPMlYbICYiAIWxBPh2h-39" value="finnerVare" style="text;html=1;strokeColor=none;fillColor=none;align=center;verticalAlign=middle;whiteSpace=wrap;rounded=0;" vertex="1" parent="1">
          <mxGeometry x="260" y="60" width="60" height="20" as="geometry" />
        </mxCell>
        <mxCell id="tlPMlYbICYiAIWxBPh2h-40" value="" style="endArrow=open;endFill=1;endSize=12;html=1;rounded=0;edgeStyle=orthogonalEdgeStyle;" edge="1" parent="1" target="tlPMlYbICYiAIWxBPh2h-12">
          <mxGeometry width="160" relative="1" as="geometry">
            <mxPoint x="480" y="130" as="sourcePoint" />
            <mxPoint x="530" y="180" as="targetPoint" />
            <Array as="points">
              <mxPoint x="480" y="130" />
            </Array>
          </mxGeometry>
        </mxCell>
        <mxCell id="tlPMlYbICYiAIWxBPh2h-41" value="Legge til vare" style="text;html=1;strokeColor=none;fillColor=none;align=center;verticalAlign=middle;whiteSpace=wrap;rounded=0;" vertex="1" parent="1">
          <mxGeometry x="507" y="100" width="60" height="30" as="geometry" />
        </mxCell>
        <mxCell id="tlPMlYbICYiAIWxBPh2h-42" value="" style="endArrow=open;endFill=1;endSize=12;html=1;rounded=0;edgeStyle=orthogonalEdgeStyle;" edge="1" parent="1" source="tlPMlYbICYiAIWxBPh2h-12" target="tlPMlYbICYiAIWxBPh2h-13">
          <mxGeometry width="160" relative="1" as="geometry">
            <mxPoint x="510" y="180" as="sourcePoint" />
            <mxPoint x="670" y="180" as="targetPoint" />
            <Array as="points">
              <mxPoint x="670" y="140" />
              <mxPoint x="670" y="140" />
            </Array>
          </mxGeometry>
        </mxCell>
        <mxCell id="tlPMlYbICYiAIWxBPh2h-43" value="Betaling fullført" style="text;html=1;strokeColor=none;fillColor=none;align=center;verticalAlign=middle;whiteSpace=wrap;rounded=0;" vertex="1" parent="1">
          <mxGeometry x="630" y="100" width="60" height="30" as="geometry" />
        </mxCell>
        <mxCell id="tlPMlYbICYiAIWxBPh2h-49" value="" style="endArrow=open;endFill=1;endSize=12;html=1;rounded=0;edgeStyle=orthogonalEdgeStyle;" edge="1" parent="1" source="tlPMlYbICYiAIWxBPh2h-13" target="tlPMlYbICYiAIWxBPh2h-12">
          <mxGeometry width="160" relative="1" as="geometry">
            <mxPoint x="560" y="180" as="sourcePoint" />
            <mxPoint x="720" y="180" as="targetPoint" />
            <Array as="points">
              <mxPoint x="670" y="220" />
              <mxPoint x="670" y="220" />
            </Array>
          </mxGeometry>
        </mxCell>
        <mxCell id="tlPMlYbICYiAIWxBPh2h-50" value="Betale ikke godkjent" style="text;html=1;strokeColor=none;fillColor=none;align=center;verticalAlign=middle;whiteSpace=wrap;rounded=0;" vertex="1" parent="1">
          <mxGeometry x="640" y="170" width="60" height="40" as="geometry" />
        </mxCell>
        <mxCell id="tlPMlYbICYiAIWxBPh2h-51" value="" style="endArrow=open;endFill=1;endSize=12;html=1;rounded=0;edgeStyle=orthogonalEdgeStyle;" edge="1" parent="1" source="tlPMlYbICYiAIWxBPh2h-12" target="tlPMlYbICYiAIWxBPh2h-15">
          <mxGeometry width="160" relative="1" as="geometry">
            <mxPoint x="400" y="180" as="sourcePoint" />
            <mxPoint x="560" y="180" as="targetPoint" />
            <Array as="points">
              <mxPoint x="480" y="260" />
              <mxPoint x="480" y="260" />
            </Array>
          </mxGeometry>
        </mxCell>
      </root>
    </mxGraphModel>
  </diagram>
</mxfile>
